<svg xmlns="http://www.w3.org/2000/svg" xmlns:xlink="http://www.w3.org/1999/xlink" width="500" zoomAndPan="magnify" viewBox="0 0 375 374.999991" height="500" preserveAspectRatio="xMidYMid meet" version="1.0"><defs><clipPath id="e72126d47c"><path d="M 154 252 L 252 252 L 252 318.390625 L 154 318.390625 Z M 154 252 " clip-rule="nonzero"/></clipPath></defs><path fill="#e81899" d="M 73.9375 172.941406 L 84.230469 156.183594 C 84.945312 155.019531 85.828125 153.996094 86.832031 153.125 C 69.316406 133.816406 59.59375 115.210938 58.601562 99.964844 L 52.140625 110.484375 C 43.636719 124.335938 51.992188 148.050781 73.9375 172.941406 Z M 73.9375 172.941406 " fill-opacity="1" fill-rule="nonzero"/><path fill="#e81899" d="M 42.804688 125.6875 L 11.53125 176.601562 C 5.953125 185.683594 7.625 199 15.613281 214.105469 L 36.269531 180.480469 C 37.152344 179.039062 39.039062 178.585938 40.480469 179.472656 C 41.925781 180.355469 42.375 182.242188 41.488281 183.683594 L 19.09375 220.148438 C 22.890625 226.273438 27.65625 232.625 33.328125 239.054688 L 70.589844 178.390625 C 53.371094 159.269531 43.796875 140.804688 42.804688 125.6875 Z M 42.804688 125.6875 " fill-opacity="1" fill-rule="nonzero"/><path fill="#e81899" d="M 102.09375 161.40625 C 101.664062 159.605469 100.558594 158.082031 98.980469 157.113281 C 97.40625 156.144531 95.546875 155.847656 93.746094 156.277344 C 91.945312 156.707031 90.417969 157.8125 89.449219 159.390625 L 37.4375 244.074219 C 35.4375 247.332031 36.460938 251.605469 39.714844 253.605469 C 41.292969 254.574219 43.152344 254.871094 44.953125 254.441406 C 46.753906 254.011719 48.277344 252.90625 49.246094 251.328125 L 101.257812 166.644531 C 102.226562 165.066406 102.523438 163.207031 102.09375 161.40625 Z M 102.09375 161.40625 " fill-opacity="1" fill-rule="nonzero"/><path fill="#e81899" d="M 105.566406 171.339844 L 93.003906 191.792969 C 103.945312 201.375 116.183594 210.355469 129.449219 218.503906 C 142.714844 226.652344 156.257812 233.503906 169.75 238.933594 L 182.3125 218.476562 C 168.824219 212.984375 155.300781 206.109375 142.054688 197.976562 C 128.8125 189.839844 116.566406 180.886719 105.566406 171.339844 Z M 105.566406 171.339844 " fill-opacity="1" fill-rule="nonzero"/><path fill="#e81899" d="M 102.1875 151.890625 C 106.9375 154.808594 109.148438 160.296875 108.164062 165.472656 C 119.269531 175.265625 131.730469 184.445312 145.261719 192.753906 C 158.792969 201.0625 172.609375 208.027344 186.363281 213.503906 C 187.8125 212.382812 189.484375 211.5625 191.316406 211.125 C 194.710938 210.3125 198.214844 210.871094 201.1875 212.699219 C 204.183594 214.539062 206.167969 217.40625 206.980469 220.566406 C 241.09375 230.246094 267.667969 227.34375 276.5625 212.863281 C 278.957031 208.964844 280.054688 204.296875 279.859375 198.988281 L 207.902344 160.894531 C 202.339844 164.019531 195.546875 164.269531 189.746094 161.46875 C 180 156.765625 175.898438 145.003906 180.605469 135.257812 C 185.3125 125.507812 197.070312 121.40625 206.820312 126.113281 C 212.617188 128.914062 216.648438 134.386719 217.660156 140.683594 L 263.039062 160.554688 C 248.988281 141.726562 227.40625 122.566406 202.125 106.625 C 199.164062 111.535156 194.167969 114.976562 188.402344 115.894531 C 187.367188 116.058594 186.332031 116.136719 185.3125 116.140625 C 175.832031 116.140625 167.46875 109.238281 165.933594 99.585938 C 165.304688 95.613281 165.894531 91.632812 167.59375 88.078125 C 145.148438 78.042969 123.101562 72.144531 105.195312 71.429688 C 86.898438 70.695312 73.675781 75.425781 67.960938 84.734375 C 59.0625 99.21875 68.488281 124.230469 92.542969 150.277344 C 95.863281 149.542969 99.28125 150.105469 102.1875 151.890625 Z M 102.1875 151.890625 " fill-opacity="1" fill-rule="nonzero"/><path fill="#e81899" d="M 207.027344 226.945312 C 206.714844 228.222656 206.203125 229.476562 205.480469 230.65625 L 195.1875 247.410156 C 227.304688 255.734375 252.234375 252.460938 260.746094 238.617188 L 267.207031 228.09375 C 260.574219 230.933594 252.394531 232.378906 242.949219 232.378906 C 232.402344 232.378906 220.289062 230.582031 207.027344 226.945312 Z M 207.027344 226.945312 " fill-opacity="1" fill-rule="nonzero"/><path fill="#e81899" d="M 48.371094 86.976562 L 3.0625 160.742188 C -0.0117188 165.75 0.898438 172.089844 4.886719 176.070312 C 5.316406 175.15625 5.78125 174.257812 6.3125 173.394531 L 62.683594 81.617188 C 57.378906 79.964844 51.410156 82.027344 48.371094 86.976562 Z M 48.371094 86.976562 " fill-opacity="1" fill-rule="nonzero"/><path fill="#e81899" d="M 281.730469 216.152344 L 265.96875 241.816406 C 265.96875 241.820312 265.96875 241.820312 265.96875 241.820312 L 225.359375 307.933594 C 224.828125 308.800781 224.234375 309.617188 223.613281 310.414062 C 225.785156 311.136719 228.117188 311.253906 230.398438 310.707031 C 233.632812 309.933594 236.371094 307.945312 238.113281 305.113281 L 283.421875 231.347656 C 285.160156 228.511719 285.695312 225.167969 284.921875 221.933594 C 284.390625 219.71875 283.28125 217.742188 281.730469 216.152344 Z M 281.730469 216.152344 " fill-opacity="1" fill-rule="nonzero"/><path fill="#e81899" d="M 365.183594 211.964844 L 213.585938 145.589844 C 212.535156 145.128906 211.828125 144.121094 211.757812 142.972656 C 211.453125 138.09375 208.542969 133.75 204.15625 131.628906 C 197.453125 128.394531 189.359375 131.214844 186.121094 137.921875 C 182.886719 144.625 185.707031 152.714844 192.414062 155.953125 C 196.796875 158.070312 202.015625 157.648438 206.023438 154.851562 C 206.546875 154.484375 207.160156 154.296875 207.777344 154.296875 C 208.269531 154.296875 208.761719 154.417969 209.210938 154.65625 L 355.472656 232.078125 C 358.179688 233.511719 361.273438 233.777344 364.1875 232.820312 C 367.097656 231.867188 369.433594 229.820312 370.765625 227.0625 C 372.097656 224.304688 372.246094 221.199219 371.183594 218.328125 C 370.121094 215.453125 367.992188 213.195312 365.183594 211.964844 Z M 365.183594 211.964844 " fill-opacity="1" fill-rule="nonzero"/><path fill="#e81899" d="M 126.242188 223.722656 C 113 215.59375 100.75 206.636719 89.75 197.089844 L 54.464844 254.535156 C 53.769531 255.667969 52.921875 256.667969 51.949219 257.523438 C 56.621094 261.632812 61.53125 265.636719 66.664062 269.507812 L 86.753906 236.796875 C 87.640625 235.355469 89.527344 234.902344 90.96875 235.789062 C 92.410156 236.675781 92.859375 238.558594 91.976562 240 L 71.613281 273.152344 C 77.132812 277.125 82.875 280.957031 88.839844 284.621094 C 94.800781 288.28125 100.816406 291.671875 106.855469 294.796875 L 127.214844 261.648438 C 128.101562 260.207031 129.988281 259.753906 131.429688 260.640625 C 132.871094 261.523438 133.324219 263.410156 132.4375 264.851562 L 112.34375 297.566406 C 118.121094 300.390625 123.910156 302.960938 129.691406 305.269531 C 130.007812 304.03125 130.511719 302.816406 131.214844 301.671875 L 166.5 244.226562 C 153.007812 238.734375 139.484375 231.859375 126.242188 223.722656 Z M 126.242188 223.722656 " fill-opacity="1" fill-rule="nonzero"/><path fill="#e81899" d="M 374.480469 66.449219 C 374 63.421875 372.351562 60.792969 369.839844 59.039062 C 367.328125 57.285156 364.289062 56.648438 361.28125 57.238281 L 198.914062 89.25 C 197.785156 89.46875 196.632812 89.042969 195.917969 88.144531 C 193.328125 84.871094 189.398438 83 185.308594 83 C 184.609375 83 183.90625 83.054688 183.203125 83.167969 C 179.640625 83.734375 176.511719 85.652344 174.394531 88.570312 C 172.273438 91.492188 171.417969 95.0625 171.984375 98.621094 C 173.152344 105.976562 180.089844 111.007812 187.441406 109.839844 C 192.25 109.078125 196.292969 105.753906 197.988281 101.167969 C 198.386719 100.09375 199.351562 99.328125 200.492188 99.191406 L 364.785156 79.296875 C 367.828125 78.929688 370.519531 77.378906 372.363281 74.933594 C 374.210938 72.488281 374.960938 69.472656 374.480469 66.449219 Z M 374.480469 66.449219 " fill-opacity="1" fill-rule="nonzero"/><g clip-path="url(#e72126d47c)"><path fill="#e81899" d="M 227.0625 258.105469 C 216.691406 258.105469 204.816406 256.375 191.835938 252.867188 L 154.578125 313.527344 C 162.878906 315.679688 170.699219 317.054688 177.878906 317.675781 L 200.277344 281.214844 C 201.160156 279.773438 203.046875 279.320312 204.488281 280.207031 C 205.929688 281.09375 206.382812 282.976562 205.496094 284.417969 L 184.84375 318.046875 C 201.929688 318.34375 214.5625 313.808594 220.140625 304.726562 L 251.417969 253.804688 C 244.757812 256.652344 236.546875 258.105469 227.0625 258.105469 Z M 227.0625 258.105469 " fill-opacity="1" fill-rule="nonzero"/></g><path fill="#e81899" d="M 201.09375 222.210938 C 200.664062 220.410156 199.558594 218.886719 197.980469 217.917969 C 196.875 217.238281 195.632812 216.890625 194.367188 216.890625 C 193.824219 216.890625 193.28125 216.953125 192.742188 217.082031 C 190.941406 217.511719 189.417969 218.617188 188.449219 220.195312 L 136.433594 304.878906 C 134.4375 308.136719 135.457031 312.410156 138.714844 314.410156 C 140.289062 315.378906 142.152344 315.675781 143.949219 315.246094 C 145.75 314.816406 147.277344 313.710938 148.242188 312.132812 L 200.257812 227.449219 C 201.226562 225.871094 201.523438 224.011719 201.09375 222.210938 Z M 201.09375 222.210938 " fill-opacity="1" fill-rule="nonzero"/></svg>